<svg xmlns="http://www.w3.org/2000/svg" width="192" height="192" viewBox="0 0 192 192" version="1.1"><path d="" stroke="none" fill="#94c40c" fill-rule="evenodd"/><path d="M 6.200 27.200 C 4.471 28.929, 4.471 125.071, 6.200 126.800 C 7.017 127.617, 11.800 128, 21.200 128 L 35 128 35 145.066 C 35 154.917, 35.438 162.949, 36.035 164.066 C 37.044 165.951, 38.930 166, 110.835 166 C 166.874 166, 184.888 165.712, 185.800 164.800 C 187.301 163.299, 187.515 67.365, 186.023 65 C 185.272 63.810, 182.174 63.433, 171.038 63.174 L 157 62.849 157 45.624 C 157 33.561, 156.640 28.040, 155.800 27.200 C 154.063 25.463, 7.937 25.463, 6.200 27.200 M 13 77 L 13 120 80.500 120 L 148 120 148 77 L 148 34 80.500 34 L 13 34 13 77 M 41.223 64.557 C 38.606 66.390, 38.399 68.256, 40.571 70.429 C 41.946 71.803, 47.009 72, 81 72 C 114.991 72, 120.054 71.803, 121.429 70.429 C 123.601 68.256, 123.394 66.390, 120.777 64.557 C 117.436 62.216, 44.564 62.216, 41.223 64.557 M 157 98.800 C 157 118.311, 156.674 125.926, 155.800 126.800 C 154.896 127.704, 140.978 128, 99.300 128 L 44 128 44 143 L 44 158 111.500 158 L 179 158 179 115 L 179 72 168 72 L 157 72 157 98.800 M 40.200 87.200 C 39.540 87.860, 39 89.120, 39 90 C 39 93.892, 40.138 94, 81 94 C 121.141 94, 123 93.839, 123 90.371 C 123 89.696, 122.293 88.436, 121.429 87.571 C 120.053 86.196, 114.958 86, 80.629 86 C 51.451 86, 41.093 86.307, 40.200 87.200" stroke="none" fill="#94bc0c" fill-rule="evenodd"/></svg>